# xmcd
#
# Track frame offsets: 
#        150
#        13837
#        26740
#        46566
#        61921
#        77845
#        89804
#        105996
#        120226
#        135925
#        150838
#        165511
#        184210
#        201422
#        219616
#        243487
#
# Disc length: 3402 seconds
#
# Revision: 0
# Processed by: cddbd v1.5.2PL0 Copyright (c) Steve Scherf et al.
# Submitted via: ExactAudioCopyFreeDBPlugin 1.0
#
DISCID=c80d4810
DTITLE=Maverick Music - Vol 2, Issue 118
DYEAR=2013
DGENRE=Americana
TTITLE0=Maverick Music/The Kennedys - Winter
TTITLE1=Maverick Music/The Haley Sisters - Let It Be Me
TTITLE2=Maverick Music/Ian McNabb - Music is Love
TTITLE3=Maverick Music/Maris Jordan - Better Then Nothing
TTITLE4=Maverick Music/Jon Byrd - Silent Night
TTITLE5=Maverick Music/Shelby Lynne - Even Angels (Live at McCabes)
TTITLE6=Maverick Music/Hatful of Rain - Way Up On the Hill
TTITLE7=Maverick Music/The Good Intentions - Lonely Train
TTITLE8=Maverick Music/Van Preston - My Heart Craves Him
TTITLE9=Maverick Music/Ned Evett - Bend Me
TTITLE10=Maverick Music/Lera Lynn - Bobby Baby
TTITLE11=Maverick Music/Dave Gunning - These Hands
TTITLE12=Maverick Music/Cicero Buck - A Christmas Message
TTITLE13=Maverick Music/Jim Dolan Project - Photograph
TTITLE14=Maverick Music/Angie Plamer - Raising Hurricanes
TTITLE15=Maverick Music/Luke Powers - Thank You All (Hope It's Not Too
TTITLE15=Late)
EXTD=
EXTT0=
EXTT1=
EXTT2=
EXTT3=
EXTT4=
EXTT5=
EXTT6=
EXTT7=
EXTT8=
EXTT9=
EXTT10=
EXTT11=
EXTT12=
EXTT13=
EXTT14=
EXTT15=
PLAYORDER=
